<mxfile host="app.diagrams.net" modified="2021-11-29T06:03:48.331Z" agent="5.0 (Windows NT 10.0; Win64; x64) AppleWebKit/537.36 (KHTML, like Gecko) Chrome/92.0.4515.159 Safari/537.36" etag="HvDYOJc137ivku_cWVFX" version="15.8.6" type="github">
  <diagram id="HVUINdWz_MUtsjOmrGz2" name="第 1 页">
    <mxGraphModel dx="1248" dy="686" grid="1" gridSize="10" guides="1" tooltips="1" connect="1" arrows="1" fold="1" page="1" pageScale="1" pageWidth="827" pageHeight="1169" math="0" shadow="0">
      <root>
        <mxCell id="0" />
        <mxCell id="1" parent="0" />
        <mxCell id="jmt8j3PYFXHDjZKTZDfz-1" value="" style="whiteSpace=wrap;html=1;aspect=fixed;strokeWidth=2;" vertex="1" parent="1">
          <mxGeometry x="210" y="150" width="50" height="50" as="geometry" />
        </mxCell>
        <mxCell id="jmt8j3PYFXHDjZKTZDfz-2" value="" style="whiteSpace=wrap;html=1;aspect=fixed;strokeWidth=2;" vertex="1" parent="1">
          <mxGeometry x="260" y="150" width="50" height="50" as="geometry" />
        </mxCell>
        <mxCell id="jmt8j3PYFXHDjZKTZDfz-3" value="" style="whiteSpace=wrap;html=1;aspect=fixed;strokeWidth=2;" vertex="1" parent="1">
          <mxGeometry x="310" y="150" width="50" height="50" as="geometry" />
        </mxCell>
        <mxCell id="jmt8j3PYFXHDjZKTZDfz-4" value="" style="whiteSpace=wrap;html=1;aspect=fixed;strokeWidth=2;" vertex="1" parent="1">
          <mxGeometry x="360" y="150" width="50" height="50" as="geometry" />
        </mxCell>
        <mxCell id="jmt8j3PYFXHDjZKTZDfz-5" value="" style="whiteSpace=wrap;html=1;aspect=fixed;strokeWidth=2;" vertex="1" parent="1">
          <mxGeometry x="210" y="200" width="50" height="50" as="geometry" />
        </mxCell>
        <mxCell id="jmt8j3PYFXHDjZKTZDfz-6" value="" style="whiteSpace=wrap;html=1;aspect=fixed;strokeWidth=2;" vertex="1" parent="1">
          <mxGeometry x="260" y="200" width="50" height="50" as="geometry" />
        </mxCell>
        <mxCell id="jmt8j3PYFXHDjZKTZDfz-7" value="" style="whiteSpace=wrap;html=1;aspect=fixed;strokeWidth=2;" vertex="1" parent="1">
          <mxGeometry x="310" y="200" width="50" height="50" as="geometry" />
        </mxCell>
        <mxCell id="jmt8j3PYFXHDjZKTZDfz-8" value="" style="whiteSpace=wrap;html=1;aspect=fixed;strokeWidth=2;" vertex="1" parent="1">
          <mxGeometry x="360" y="200" width="50" height="50" as="geometry" />
        </mxCell>
        <mxCell id="jmt8j3PYFXHDjZKTZDfz-9" value="" style="whiteSpace=wrap;html=1;aspect=fixed;strokeWidth=2;" vertex="1" parent="1">
          <mxGeometry x="210" y="250" width="50" height="50" as="geometry" />
        </mxCell>
        <mxCell id="jmt8j3PYFXHDjZKTZDfz-10" value="" style="whiteSpace=wrap;html=1;aspect=fixed;strokeWidth=2;" vertex="1" parent="1">
          <mxGeometry x="260" y="250" width="50" height="50" as="geometry" />
        </mxCell>
        <mxCell id="jmt8j3PYFXHDjZKTZDfz-11" value="" style="whiteSpace=wrap;html=1;aspect=fixed;strokeWidth=2;" vertex="1" parent="1">
          <mxGeometry x="310" y="250" width="50" height="50" as="geometry" />
        </mxCell>
        <mxCell id="jmt8j3PYFXHDjZKTZDfz-12" value="" style="whiteSpace=wrap;html=1;aspect=fixed;strokeWidth=2;" vertex="1" parent="1">
          <mxGeometry x="360" y="250" width="50" height="50" as="geometry" />
        </mxCell>
        <mxCell id="jmt8j3PYFXHDjZKTZDfz-13" value="" style="whiteSpace=wrap;html=1;aspect=fixed;strokeWidth=2;" vertex="1" parent="1">
          <mxGeometry x="210" y="300" width="50" height="50" as="geometry" />
        </mxCell>
        <mxCell id="jmt8j3PYFXHDjZKTZDfz-14" value="" style="whiteSpace=wrap;html=1;aspect=fixed;strokeWidth=2;" vertex="1" parent="1">
          <mxGeometry x="260" y="300" width="50" height="50" as="geometry" />
        </mxCell>
        <mxCell id="jmt8j3PYFXHDjZKTZDfz-15" value="" style="whiteSpace=wrap;html=1;aspect=fixed;strokeWidth=2;" vertex="1" parent="1">
          <mxGeometry x="310" y="300" width="50" height="50" as="geometry" />
        </mxCell>
        <mxCell id="jmt8j3PYFXHDjZKTZDfz-16" value="" style="whiteSpace=wrap;html=1;aspect=fixed;strokeWidth=2;" vertex="1" parent="1">
          <mxGeometry x="360" y="300" width="50" height="50" as="geometry" />
        </mxCell>
        <mxCell id="jmt8j3PYFXHDjZKTZDfz-17" value="" style="whiteSpace=wrap;html=1;aspect=fixed;strokeWidth=2;" vertex="1" parent="1">
          <mxGeometry x="210" y="350" width="50" height="50" as="geometry" />
        </mxCell>
        <mxCell id="jmt8j3PYFXHDjZKTZDfz-18" value="" style="whiteSpace=wrap;html=1;aspect=fixed;strokeWidth=2;" vertex="1" parent="1">
          <mxGeometry x="260" y="350" width="50" height="50" as="geometry" />
        </mxCell>
        <mxCell id="jmt8j3PYFXHDjZKTZDfz-19" value="" style="whiteSpace=wrap;html=1;aspect=fixed;strokeWidth=2;" vertex="1" parent="1">
          <mxGeometry x="310" y="350" width="50" height="50" as="geometry" />
        </mxCell>
        <mxCell id="jmt8j3PYFXHDjZKTZDfz-20" value="" style="whiteSpace=wrap;html=1;aspect=fixed;strokeWidth=2;" vertex="1" parent="1">
          <mxGeometry x="360" y="350" width="50" height="50" as="geometry" />
        </mxCell>
      </root>
    </mxGraphModel>
  </diagram>
</mxfile>
